<svg width="51" height="44" viewBox="0 0 51 44" fill="none" xmlns="http://www.w3.org/2000/svg">
<path d="M50.9333 26.8673C50.9333 31.3588 46.8153 35.0126 41.7534 35.0126H34.18V39.0853H38.7699C40.0375 39.0853 41.0649 39.9968 41.0649 41.1216C41.0649 42.2463 40.0389 43.1579 38.7699 43.1579H2.29947C1.03185 43.1579 0 42.2423 0 41.1176C0 39.9928 1.03185 39.0773 2.29947 39.0773L29.59 39.0853V35.0126H25C23.7324 35.0126 22.705 34.101 22.705 32.9763C22.705 31.8516 23.7324 30.94 25 30.94H41.7534C44.2842 30.94 46.3434 29.1129 46.3434 26.8673C46.3434 25.7426 47.3708 24.831 48.6384 24.831C49.9059 24.831 50.9333 25.7426 50.9333 26.8673ZM41.7534 0.395264H25C23.7324 0.395264 22.705 1.30683 22.705 2.43157C22.705 3.55632 23.7324 4.4679 25 4.4679H41.7534C44.2842 4.4679 46.3434 6.29501 46.3434 8.54053V16.6858C46.3434 17.8106 47.3708 18.7221 48.6384 18.7221C49.9059 18.7221 50.9333 17.8106 50.9333 16.6858V8.54053C50.9333 4.04909 46.8153 0.395264 41.7534 0.395264Z" fill="url(#paint0_diamond_807_245)"/>
<path d="M6.18307 41.8288C5.2156 42.468 4.23784 42.7877 3.24978 42.7877C2.28231 42.7877 1.56185 42.7146 1.08841 42.5685C0.229941 42.1887 0.459883 41.1175 0.459883 41.1175C0.459883 41.1175 0.398834 39.6096 0.872277 39.6096C1.34571 39.6096 1.74712 39.5823 2.07646 39.5275C2.40582 39.4544 2.75576 39.3083 3.12628 39.0891C3.84674 38.6508 4.6804 37.6371 5.62729 36.0481C10.1147 28.4501 12.4819 24.2311 12.729 23.3909C12.7907 23.1717 12.8215 22.9982 12.8215 22.8704C12.8628 21.8475 11.8644 21.0256 9.82653 20.4047C12.2349 19.875 13.9949 19.0256 15.1065 17.8568C15.4975 17.4549 15.8475 17.0075 16.1562 16.5143L23.6593 4.18583C22.0125 3.5831 20.5201 3.28174 19.1822 3.28174C17.8441 3.28174 16.7635 3.35479 15.9401 3.50091C15.1373 3.62877 6.17095 2.67172 5.4299 2.96394C4.95646 3.31097 5.97585 2.96394 5.46124 2.96394C4.96721 2.96394 5.89352 3.12833 5.46124 2.96394C5.46124 2.96394 6.60506 2.58865 6.27571 2.24163C5.53467 1.47452 6.95499 3.82683 6.95499 2.6579C6.95499 1.47072 8.46613 3.62146 8.79548 2.96394C7.70451 2.3247 7.10937 3.1982 7.10937 2.17539C7.10937 1.15258 4.67903 3.69452 5.46124 2.96394C4.80254 2.2151 4.02407 3.2789 4.02407 2.6579C4.02407 2.01864 3.50656 1.70726 4.88625 1.50323C5.86353 1.50323 3.65355 2.14935 4.02407 1.80233C4.78569 1.09001 5.18472 1.80233 6.27571 1.80233C6.8109 1.80233 6.50213 1.60141 6.95499 1.80233C6.87265 2.20415 6.95499 1.40051 6.95499 1.80233C6.95499 2.64248 7.38726 1.80232 8.25182 1.80232C8.88993 1.80232 9.77507 1.57402 10.9072 1.11741C15.6364 1.11741 15.5956 1.11741 18.6832 1.11741C26.4999 1.1448 18.6832 1.11741 26.4999 1.1448C30.583 1.28069 26.4999 1.14481 30.583 1.28069C34.0957 1.58674 30.583 1.28069 34.0957 1.58674C37.0215 1.38271 34.0957 1.58674 37.0215 1.38271C37.8861 1.38271 38.4081 1.13458 38.8198 1.28069C39.4579 1.82863 40.8268 1.80233 40.8268 2.56943C40.8268 2.98951 40.7136 3.27261 40.4872 3.41873C39.952 3.10823 39.3962 2.95298 38.8198 2.95298C38.264 2.95298 37.8008 3.01691 37.4304 3.14476C37.0598 3.25435 36.7098 3.44612 36.3805 3.72009C35.763 4.24975 35.0013 5.38215 34.0957 7.11727C31.0697 12.834 29.4333 16.0303 29.1862 16.7061C28.9598 17.3819 28.8465 17.875 28.8465 18.1855C28.8465 19.2084 29.5773 19.9481 31.0389 20.4047C29.3715 20.7516 27.9717 21.3543 26.8396 22.2128C25.7074 23.0713 24.7194 24.2493 23.8754 25.747L17.0826 37.8288C16.2688 39.3833 17.591 41.0155 17.591 41.0155C17.591 41.0155 16.8664 42.4315 14.6433 41.7192C13.2436 42.4315 11.7615 42.7877 10.197 42.7877C8.65321 42.7877 7.31522 42.468 6.18307 41.8288ZM26.4382 7.99396C25.0179 8.28619 23.7416 9.45511 22.6095 11.5007L19.7071 16.6239C18.9249 17.9755 18.3588 18.8796 18.0089 19.3362C17.6589 19.7745 17.2266 20.0941 16.712 20.295C16.218 20.4777 15.549 20.6421 14.705 20.7882C15.1167 20.9343 15.4667 21.1535 15.7548 21.4457C16.0431 21.7379 16.1666 22.0484 16.1254 22.3772C16.0842 22.6877 15.9916 23.0165 15.8475 23.3635C15.724 23.6922 15.549 24.0849 15.3225 24.5415C15.0962 24.9799 14.8183 25.4913 14.4889 26.0757L12.1422 30.377C11.3601 31.8564 10.969 32.8701 10.969 33.418C10.969 34.1851 11.1542 34.7057 11.5247 34.9796L26.4382 7.99396Z" fill="url(#paint1_diamond_807_245)"/>
<path d="M0 41.1176C0 39.9907 1.02951 39.0773 2.29947 39.0773L38.7699 39.0853C40.0399 39.0853 41.0649 39.9947 41.0649 41.1216C41.0649 42.2484 40.0399 43.1579 38.7699 43.1579H2.29947C1.02951 43.1579 0 42.2444 0 41.1176Z" fill="url(#paint2_diamond_807_245)"/>
<path d="M2.1845 2.45383C2.1845 1.327 3.214 0.413526 4.48397 0.413526H34.837C36.107 0.413526 37.1365 1.327 37.1365 2.45383C37.1365 3.58066 36.107 4.49413 34.837 4.49413H4.48397C3.214 4.49413 2.1845 3.58066 2.1845 2.45383Z" fill="url(#paint3_diamond_807_245)"/>
<path d="M11.1932 4.33124L21.2282 4.02988L23.8217 3.92029L26.6316 0.413526H5.48101C3.85484 0.413526 2.70211 0.696624 2.02282 1.26282C1.36411 1.82902 1.03476 2.71484 1.03476 3.92029C1.03476 5.12574 1.27148 6.22161 1.74493 7.20788C1.95077 7.64623 2.16691 8.02979 2.39334 8.35854C2.64035 8.66904 2.8462 8.92474 3.01087 9.12565C3.17555 9.30829 3.53577 9.39961 4.09156 9.39961C5.16195 9.39961 5.71773 9.20784 5.7589 8.82429C5.73831 7.25354 6.18088 6.13029 7.0866 5.45451C7.99232 4.77872 9.36118 4.4043 11.1932 4.33124Z" fill="url(#paint4_diamond_807_245)"/>
<defs>
<radialGradient id="paint0_diamond_807_245" cx="0" cy="0" r="1" gradientUnits="userSpaceOnUse" gradientTransform="translate(25.4667 21.7765) rotate(90) scale(21.3813 25.4667)">
<stop stop-color="#F0F1F3" stop-opacity="0.85"/>
<stop offset="0.53125" stop-color="#BABDC2" stop-opacity="0.81"/>
<stop offset="1" stop-color="#EBECEF"/>
</radialGradient>
<radialGradient id="paint1_diamond_807_245" cx="0" cy="0" r="1" gradientUnits="userSpaceOnUse" gradientTransform="translate(25.4667 21.7765) rotate(90) scale(21.3813 25.4667)">
<stop stop-color="#F0F1F3" stop-opacity="0.85"/>
<stop offset="0.53125" stop-color="#BABDC2" stop-opacity="0.81"/>
<stop offset="1" stop-color="#EBECEF"/>
</radialGradient>
<radialGradient id="paint2_diamond_807_245" cx="0" cy="0" r="1" gradientUnits="userSpaceOnUse" gradientTransform="translate(25.4667 21.7765) rotate(90) scale(21.3813 25.4667)">
<stop stop-color="#F0F1F3" stop-opacity="0.85"/>
<stop offset="0.53125" stop-color="#BABDC2" stop-opacity="0.81"/>
<stop offset="1" stop-color="#EBECEF"/>
</radialGradient>
<radialGradient id="paint3_diamond_807_245" cx="0" cy="0" r="1" gradientUnits="userSpaceOnUse" gradientTransform="translate(25.4667 21.7765) rotate(90) scale(21.3813 25.4667)">
<stop stop-color="#F0F1F3" stop-opacity="0.85"/>
<stop offset="0.53125" stop-color="#BABDC2" stop-opacity="0.81"/>
<stop offset="1" stop-color="#EBECEF"/>
</radialGradient>
<radialGradient id="paint4_diamond_807_245" cx="0" cy="0" r="1" gradientUnits="userSpaceOnUse" gradientTransform="translate(25.4667 21.7765) rotate(90) scale(21.3813 25.4667)">
<stop stop-color="#F0F1F3" stop-opacity="0.85"/>
<stop offset="0.53125" stop-color="#BABDC2" stop-opacity="0.81"/>
<stop offset="1" stop-color="#EBECEF"/>
</radialGradient>
</defs>
</svg>
