<svg width="40" height="40" viewBox="0 0 40 40" fill="none" xmlns="http://www.w3.org/2000/svg">
<g clip-path="url(#clip0)">
<path d="M39.3823 3.97339C38.8937 3.37585 38.1619 3.04688 37.3215 3.04688C36.8646 3.04688 36.3806 3.14301 35.8832 3.33313L2.02393 16.2582C0.227054 16.944 -0.0149499 17.973 0.000614092 18.5254C0.016178 19.0778 0.316166 20.0916 2.14905 20.6747C2.16004 20.6781 2.17102 20.6815 2.18201 20.6845L9.20532 22.6944L13.0035 33.5556C13.5214 35.0363 14.6838 35.9561 16.0376 35.9561C16.8912 35.9561 17.7307 35.5984 18.4656 34.9222L22.8098 30.9222L29.1107 35.9958C29.1113 35.9964 29.1122 35.9967 29.1129 35.9973L29.1727 36.0455C29.1782 36.0498 29.184 36.0544 29.1895 36.0587C29.8898 36.6019 30.6543 36.8887 31.4011 36.889H31.4014C32.8604 36.889 34.0222 35.809 34.3607 34.1379L39.9084 6.74408C40.1312 5.64453 39.9445 4.66064 39.3823 3.97339ZM11.5549 22.3126L25.105 15.3903L16.6678 24.3555C16.5295 24.5023 16.4316 24.682 16.3834 24.8776L14.7565 31.4676L11.5549 22.3126ZM16.8777 33.1979C16.8216 33.2495 16.7651 33.2956 16.7087 33.338L18.2181 27.2247L20.9637 29.4357L16.8777 33.1979ZM37.6114 6.27869L32.0636 33.6728C32.0102 33.9349 31.8396 34.545 31.4011 34.545C31.1844 34.545 30.9122 34.4269 30.6335 34.2123L23.4937 28.4634C23.4927 28.4625 23.4915 28.4616 23.4903 28.461L19.2419 25.04L31.4432 12.0752C31.8338 11.6602 31.8692 11.0245 31.5271 10.5685C31.1847 10.1126 30.5643 9.96918 30.0568 10.2286L9.98902 20.4807L2.87018 18.4439L36.719 5.52277C37.005 5.41351 37.2046 5.39062 37.3215 5.39062C37.3932 5.39062 37.5207 5.39917 37.568 5.45746C37.6303 5.53345 37.7097 5.79254 37.6114 6.27869Z" fill="white"/>
</g>
<defs>
<clipPath id="clip0">
<rect width="40" height="40" fill="white"/>
</clipPath>
</defs>
</svg>
