<svg width="45" height="29" viewBox="0 0 45 29" fill="none" xmlns="http://www.w3.org/2000/svg">
<path d="M22.7716 29C29.2816 29 26.9603 24.7505 27.4628 23.5287C27.4553 22.6161 27.4478 21.7384 27.4778 21.2048C27.8903 21.3247 28.8634 21.8331 30.8734 23.8477C33.9765 27.0763 34.7696 29 37.2765 29H41.8908C43.3533 29 44.1145 28.3755 44.4951 27.8516C44.8626 27.3451 45.2226 26.4557 44.8289 25.0715C43.7995 21.7384 37.7958 15.9829 37.4227 15.3758C37.479 15.2637 37.569 15.1148 37.6158 15.0375H37.6121C38.7971 13.4231 43.3195 6.43607 43.9851 3.64047C43.987 3.6366 43.9889 3.6308 43.9889 3.625C44.3489 2.349 44.0189 1.52153 43.6776 1.05367C43.1639 0.3538 42.3464 0 41.2421 0H36.6277C35.0827 0 33.9109 0.802333 33.3184 2.26587C32.3265 4.8662 29.5403 10.2138 27.4516 12.1065C27.3878 9.425 27.431 7.3776 27.4647 5.85607C27.5322 2.8884 27.7497 0 24.7629 0H17.5104C15.6392 0 13.8486 2.10733 15.7873 4.60907C17.4823 6.80147 16.3967 8.02333 16.7623 14.1056C15.3373 12.5299 12.8024 8.27467 11.0099 2.8362C10.5074 1.36493 9.74614 0.00193319 7.60304 0.00193319H2.98872C1.11749 0.00193319 0 1.05367 0 2.81493C0 6.77053 8.49178 29 22.7716 29ZM7.60304 2.90193C8.00991 2.90193 8.05116 2.90193 8.35303 3.78547C10.1886 9.35927 14.3061 17.6069 17.3136 17.6069C19.5729 17.6069 19.5729 15.2192 19.5729 14.3202L19.571 7.163C19.4473 4.79467 18.611 3.61533 18.0617 2.9L24.6391 2.90773C24.6429 2.9406 24.6016 10.8247 24.6579 12.7349C24.6579 15.4473 26.7466 17.0017 30.0072 13.5991C33.4478 9.59513 35.8271 3.60953 35.9227 3.36593C36.0634 3.01793 36.1852 2.9 36.6277 2.9H41.2421H41.2608C41.2589 2.9058 41.2589 2.9116 41.257 2.9174C40.8352 4.9474 36.6708 11.4163 35.2777 13.4251C35.2552 13.456 35.2346 13.4889 35.214 13.5217C34.6009 14.5541 34.1021 15.6948 35.2984 17.2995H35.3002C35.409 17.4348 35.6921 17.7519 36.1046 18.1927C37.3871 19.5576 41.7858 24.2247 42.1758 26.0807C41.917 26.1232 41.6358 26.0923 37.2765 26.1019C36.3484 26.1019 35.6227 24.6713 32.8534 21.7906C30.3634 19.2927 28.7472 18.2719 27.2753 18.2719C24.4179 18.2719 24.626 20.6635 24.6522 23.5557C24.6616 26.6916 24.6429 25.6998 24.6635 25.897C24.4966 25.9647 24.0185 26.1 22.7716 26.1C10.8749 26.1 3.12747 6.6294 2.82934 2.90773C2.93247 2.89807 4.35183 2.90387 7.60304 2.90193Z" fill="white"/>
</svg>
