<svg width="147" height="30" viewBox="0 0 147 30" fill="none" xmlns="http://www.w3.org/2000/svg">
<g clip-path="url(#clip0_1001_47)">
<path d="M102.7 29V15.5V2H111.4H120.1V8.79999V15.6L124.9 8.79999L129.7 2H138.4H147.1V15.5V29H138.5H129.9V22.2V15.4L125 22.2L120.1 29H111.5H102.7Z" fill="#2B2B2B"/>
<path d="M61.2998 11.7V6.99997V2.09998H79.8998H98.4998V6.99997V11.9H93.4998H88.4998V20.5V29.1H79.8998H71.2998V20.4V11.8H66.2998H61.2998V11.7Z" fill="#2B2B2B"/>
<path d="M0.100098 29V15.4V2H11.5001H22.9001L25.9001 7.60001C27.5001 10.7 28.9001 13.2 28.9001 13.2C28.9001 13.2 30.4001 10.7 32.1001 7.60001L35.3001 2H46.3001H57.3001V15.4V28.8H48.7001H40.1001V22.1C40.1001 15.7 40.1001 15.4 39.9001 15.7C39.8001 15.8 38.1001 18.8 36.1001 22.4L32.5001 28.8H28.3001H24.1001L20.4001 22.1L16.7001 15.4V22.1V28.8H8.40008H0.100098V29Z" fill="#2B2B2B"/>
</g>
<defs>
<clipPath id="clip0_1001_47">
<rect width="147" height="30" fill="white"/>
</clipPath>
</defs>
</svg>
