<svg width="138" height="137" viewBox="0 0 138 137" fill="none" xmlns="http://www.w3.org/2000/svg">
<path d="M122.918 26.7566C126.106 30.8766 128.762 35.3955 131.02 40.18L69.6592 85.5005L43.8945 69.286V49.8819L69.528 65.9635L122.918 26.7566Z" fill="#21A038"/>
<path d="M17.7305 67.9421C17.7305 67.0118 17.7305 66.2144 17.8634 65.284L2.32425 64.4868C2.32425 65.5501 2.19141 66.7462 2.19141 67.8093C2.19141 86.4162 9.76175 103.294 21.9805 115.523L33.0038 104.492C23.574 95.1885 17.7303 82.2967 17.7303 67.9429L17.7305 67.9421Z" fill="url(#paint0_linear_1001_19)"/>
<path d="M69.5263 16.1145C70.456 16.1145 71.2529 16.1145 72.1827 16.2474L72.9796 0.697483C71.9171 0.697483 70.7218 0.564575 69.6592 0.564575C51.0655 0.564575 34.1991 8.14019 21.9785 20.3674L33.0019 31.3984C42.2988 21.9621 55.3145 16.1143 69.5254 16.1143L69.5263 16.1145Z" fill="url(#paint1_linear_1001_19)"/>
<path d="M69.527 119.793C68.5973 119.793 67.8004 119.793 66.8706 119.66L66.0737 135.21C67.1362 135.21 68.3316 135.343 69.3942 135.343C87.9879 135.343 104.854 127.767 117.075 115.54L106.051 104.509C96.7545 114.078 83.8717 119.793 69.5279 119.793H69.527Z" fill="url(#paint2_linear_1001_19)"/>
<path d="M98.7464 25.1673L111.895 15.4651C100.34 6.16189 85.5984 0.446777 69.5269 0.446777V15.9967C80.4174 16.1296 90.5113 19.4524 98.7466 25.1673H98.7464Z" fill="url(#paint3_linear_1001_19)"/>
<path d="M136.994 67.9424C136.994 63.8225 136.595 59.8352 135.931 55.8481L121.455 66.6136V67.9426C121.455 83.2267 114.814 96.9155 104.322 106.353L114.814 117.916C128.361 105.688 136.994 87.7473 136.994 67.9421L136.994 67.9424Z" fill="#21A038"/>
<path d="M69.526 119.793C54.2525 119.793 40.5732 113.148 31.1425 102.648L19.5879 113.148C31.9394 126.837 49.7353 135.343 69.5267 135.343L69.526 119.793Z" fill="url(#paint4_linear_1001_19)"/>
<path d="M34.8625 29.5437L24.3702 17.9808C10.6905 30.341 2.19043 48.1492 2.19043 67.952H17.7296C17.7296 52.8008 24.3702 38.9792 34.8625 29.5419V29.5437Z" fill="url(#paint5_linear_1001_19)"/>
<defs>
<linearGradient id="paint0_linear_1001_19" x1="20.3187" y1="113.72" x2="4.43717" y2="67.8451" gradientUnits="userSpaceOnUse">
<stop offset="0.1444" stop-color="#F2E913"/>
<stop offset="0.3037" stop-color="#E7E518"/>
<stop offset="0.5823" stop-color="#CADB26"/>
<stop offset="0.891" stop-color="#A3CD39"/>
</linearGradient>
<linearGradient id="paint1_linear_1001_19" x1="26.3449" y1="18.5522" x2="66.6471" y2="3.20511" gradientUnits="userSpaceOnUse">
<stop offset="0.0592" stop-color="#0FA8E0"/>
<stop offset="0.5385" stop-color="#0099F9"/>
<stop offset="0.9234" stop-color="#0291EB"/>
</linearGradient>
<linearGradient id="paint2_linear_1001_19" x1="65.1688" y1="122.139" x2="113.199" y2="111.292" gradientUnits="userSpaceOnUse">
<stop offset="0.1226" stop-color="#A3CD39"/>
<stop offset="0.2846" stop-color="#86C339"/>
<stop offset="0.8693" stop-color="#21A038"/>
</linearGradient>
<linearGradient id="paint3_linear_1001_19" x1="66.3054" y1="10.3922" x2="106.251" y2="22.7093" gradientUnits="userSpaceOnUse">
<stop offset="0.0566" stop-color="#0291EB"/>
<stop offset="0.79" stop-color="#0C8ACB"/>
</linearGradient>
<linearGradient id="paint4_linear_1001_19" x1="23.4818" y1="115.708" x2="66.3768" y2="131.73" gradientUnits="userSpaceOnUse">
<stop offset="0.1324" stop-color="#F2E913"/>
<stop offset="0.2977" stop-color="#EBE716"/>
<stop offset="0.5306" stop-color="#D9E01F"/>
<stop offset="0.8023" stop-color="#BBD62D"/>
<stop offset="0.9829" stop-color="#A3CD39"/>
</linearGradient>
<linearGradient id="paint5_linear_1001_19" x1="14.001" y1="69.8577" x2="31.1727" y2="25.221" gradientUnits="userSpaceOnUse">
<stop offset="0.0698" stop-color="#A3CD39"/>
<stop offset="0.2599" stop-color="#81C55F"/>
<stop offset="0.9216" stop-color="#0FA8E0"/>
</linearGradient>
</defs>
</svg>
