<svg width="148" height="41" viewBox="0 0 148 41" fill="none" xmlns="http://www.w3.org/2000/svg">
<path d="M52.12 33.98L53.74 35.78C53.14 36.94 52.24 38 51.04 38.96C49.84 39.88 48.62 40.34 47.38 40.34C45.66 40.34 44.26 39.5 43.18 37.82C42.1 36.1 41.56 33.78 41.56 30.86C41.6 30.78 41.62 30.72 41.62 30.68C40.38 31.96 39.44 32.92 38.8 33.56C38.16 34.2 37.2 35.04 35.92 36.08C33.36 38.16 30.8 39.2 28.24 39.2C26.32 39.2 24.78 38.6 23.62 37.4C22.46 36.16 21.78 34.4 21.58 32.12C19.7 34.12 17.4 36 14.68 37.76C11.96 39.48 9.56 40.34 7.48 40.34C5.44 40.34 3.82 39.64 2.62 38.24C1.42 36.84 0.82 35.04 0.82 32.84C0.82 27.84 3.26 21.9 8.14 15.02C13.02 8.14 17.96 3.24 22.96 0.319998L24.58 2.6C20.02 6 15.84 10.48 12.04 16.04C8.24 21.6 6.34 26.48 6.34 30.68C6.34 32.24 6.7 33.46 7.42 34.34C8.18 35.18 9.22 35.6 10.54 35.6C11.9 35.6 13.78 34.82 16.18 33.26C18.58 31.7 20.38 30.24 21.58 28.88C21.78 25 22.7 21.06 24.34 17.06C26.02 13.06 28 9.8 30.28 7.28C32.6 4.72 34.76 3.44 36.76 3.44C38.44 3.44 39.28 4.44 39.28 6.44C39.28 8.44 37.9 11.68 35.14 16.16C32.38 20.64 29.54 24.38 26.62 27.38C27.1 30.58 27.64 32.48 28.24 33.08C29 33.84 30.02 34.22 31.3 34.22C34.18 34.22 36.94 32.52 39.58 29.12C42.22 25.72 44.84 20.54 47.44 13.58C48.48 10.74 49.28 8.86 49.84 7.94C50.44 7.02 51.04 6.56 51.64 6.56C52.24 6.56 52.72 6.72 53.08 7.04C53.48 7.36 53.68 7.82 53.68 8.42C53.68 11.18 52.06 15.08 48.82 20.12C48.62 20.6 48.2 21.36 47.56 22.4C46.08 24.76 45.34 26.84 45.34 28.64C45.34 30.4 45.64 32.08 46.24 33.68C46.84 35.24 47.64 36.02 48.64 36.02C49.64 36.02 50.8 35.34 52.12 33.98ZM33.7 9.08C32.38 9.08 30.92 10.64 29.32 13.76C27.72 16.84 26.7 20.12 26.26 23.6C28.74 20.64 30.72 17.92 32.2 15.44C33.72 12.92 34.48 11.1 34.48 9.98C34.48 9.38 34.22 9.08 33.7 9.08ZM89.4034 18.5C89.0034 21.3 88.0834 23.96 86.6434 26.48C85.2034 28.96 83.5234 31.06 81.6034 32.78C79.6834 34.46 77.6434 35.92 75.4834 37.16C71.2834 39.64 67.6434 40.88 64.5634 40.88C61.4834 40.88 59.2034 40.32 57.7234 39.2C56.2434 38.04 55.5034 36.4 55.5034 34.28C55.5034 32.12 56.4434 29.62 58.3234 26.78H61.1434C59.8634 29.22 59.2234 31.2 59.2234 32.72C59.2234 35.2 60.9634 36.44 64.4434 36.44C68.6034 36.44 72.9634 34.6 77.5234 30.92C82.1234 27.2 84.7234 23.38 85.3234 19.46C83.5234 19.82 81.4834 20 79.2034 20C76.9634 20 74.8634 19.74 72.9034 19.22L73.0234 15.86C75.5834 16.7 77.9634 17.12 80.1634 17.12C82.3634 17.12 84.3034 16.86 85.9834 16.34C86.0234 16.1 86.0434 15.7 86.0434 15.14C86.0434 12.78 85.3434 10.74 83.9434 9.02C82.5834 7.3 80.7434 6.44 78.4234 6.44C77.5034 6.44 76.5434 6.72 75.5434 7.28C74.5834 7.8 73.8234 8.5 73.2634 9.38H68.3434C69.2234 7.34 70.6034 5.66 72.4834 4.34C74.4034 3.02 76.2834 2.36 78.1234 2.36C81.4434 2.36 84.1834 3.72 86.3434 6.44C88.5434 9.16 89.6434 12.12 89.6434 15.32C91.9234 14.52 93.5234 13.82 94.4434 13.22C95.4034 12.58 96.0234 12.18 96.3034 12.02L96.6034 14.36C95.3634 15.68 92.9634 17.06 89.4034 18.5ZM122.375 7.82L113.795 7.64C105.035 7.64 100.655 9.56 100.655 13.4C100.655 14.4 101.015 15.22 101.735 15.86C102.495 16.46 103.615 16.76 105.095 16.76C106.575 16.76 108.515 16.08 110.915 14.72L111.815 16.28C110.575 17.6 109.175 18.64 107.615 19.4C106.055 20.16 104.495 20.54 102.935 20.54C101.375 20.54 100.035 20.02 98.9148 18.98C97.7948 17.94 97.2348 16.64 97.2348 15.08C97.2348 11.92 98.9348 9.16 102.335 6.8C105.775 4.44 110.415 3.26 116.255 3.26C116.375 3.26 117.655 3.32 120.095 3.44C126.735 3.84 131.475 4.04 134.315 4.04C140.595 4.04 144.455 3.76 145.895 3.2C146.455 3.04 146.795 2.96 146.915 2.96C147.475 2.96 147.755 3.42 147.755 4.34C147.755 5.22 147.115 6.02 145.835 6.74C144.595 7.46 142.835 7.82 140.555 7.82C139.315 8.62 137.995 10.28 136.595 12.8C135.235 15.28 133.895 18.84 132.575 23.48C131.295 28.08 130.655 31.28 130.655 33.08C130.655 34.84 131.095 36.1 131.975 36.86C132.895 37.58 134.315 38.12 136.235 38.48L134.975 40.7C133.935 40.78 133.155 40.82 132.635 40.82C130.755 40.82 129.295 40.2 128.255 38.96C127.255 37.68 126.755 35.94 126.755 33.74C126.755 29.58 127.835 24.76 129.995 19.28C132.155 13.76 134.435 9.92 136.835 7.76H133.115C131.675 9.2 130.475 10.9 129.515 12.86C128.595 14.78 127.735 17.08 126.935 19.76C126.175 22.44 125.655 24.28 125.375 25.28C125.095 26.28 124.675 27.62 124.115 29.3C123.595 30.98 123.155 32.2 122.795 32.96C122.475 33.68 122.055 34.6 121.535 35.72C121.015 36.84 120.515 37.64 120.035 38.12C119.595 38.56 119.055 39.06 118.415 39.62C117.375 40.54 115.935 41 114.095 41L114.335 37.94C116.175 37.62 117.475 36.7 118.235 35.18C119.035 33.66 120.335 29.94 122.135 24.02C123.935 18.1 125.195 14.4 125.915 12.92C126.675 11.4 128.115 9.7 130.235 7.82L126.755 7.88H126.035C123.395 10.44 121.075 14.92 119.075 21.32C117.115 27.68 114.755 32.54 111.995 35.9C109.275 39.22 106.035 40.88 102.275 40.88C100.795 40.88 99.3948 40.4 98.0748 39.44L99.4548 37.16C100.575 37.72 101.695 38 102.815 38C104.815 38 106.595 37.04 108.155 35.12C109.755 33.2 111.415 29.58 113.135 24.26C114.895 18.9 116.255 15.36 117.215 13.64C118.215 11.88 119.935 9.94 122.375 7.82Z" fill="black"/>
</svg>
